<svg xmlns="http://www.w3.org/2000/svg" viewBox="0 0 1458 508" role="img" aria-labelledby="title desc">
  <title id="title">TorchDCM logo</title>
  <desc id="desc">Abstract probability curves above a bold TorchDCM wordmark.</desc>
  <rect width="1458" height="508" fill="#ffffff"/>
  <g transform="translate(278 32)">
    <path d="M13 159 C66 61 167 65 218 109 C270 154 294 180 354 126 C410 76 493 49 573 82 C643 111 677 176 739 124 C799 74 889 84 946 141 C975 170 1003 181 1042 159 L1042 209 L13 209 Z" fill="#2f80ed"/>
    <path d="M144 216 C177 177 198 132 226 61 C250 1 323 -11 362 44 C392 87 399 153 440 171 C483 190 514 168 538 116 C565 57 628 55 663 101 C691 139 689 196 730 199 C769 202 779 142 809 105 C839 68 893 81 913 126 C934 175 954 200 997 193 C1022 189 1042 171 1054 151 L1054 216 Z" fill="#1515b8"/>
    <path d="M134 216 C166 184 189 146 219 103 C254 53 325 54 360 105 C389 149 399 209 445 213 C496 218 516 161 548 129 C583 93 638 95 662 140 C689 191 690 229 731 233 C772 236 782 185 811 160 C842 132 889 140 908 177 C929 218 943 233 990 224 C1035 215 1069 211 1096 238 L1096 259 L134 259 Z" fill="#ff4fb3"/>
    <path d="M0 168 C45 173 90 177 134 184 C185 193 231 213 279 248 C343 294 424 298 488 255 C545 217 602 213 658 248 C714 283 778 279 828 243 C879 207 934 212 982 249 C1015 274 1058 278 1105 252" fill="none" stroke="#d9e0ec" stroke-width="58" stroke-linecap="round" opacity="0.85"/>
    <g opacity="0.95">
      <path d="M20 178 L20 244" stroke="#c5cfdf" stroke-width="8"/>
      <path d="M43 181 L43 256" stroke="#c5cfdf" stroke-width="8"/>
      <path d="M66 184 L66 269" stroke="#c5cfdf" stroke-width="8"/>
      <path d="M89 188 L89 282" stroke="#c5cfdf" stroke-width="8"/>
      <path d="M112 192 L112 294" stroke="#c5cfdf" stroke-width="8"/>
      <path d="M135 198 L135 306" stroke="#c5cfdf" stroke-width="8"/>
      <path d="M158 205 L158 317" stroke="#c5cfdf" stroke-width="8"/>
      <path d="M181 214 L181 326" stroke="#c5cfdf" stroke-width="8"/>
      <path d="M204 225 L204 334" stroke="#c5cfdf" stroke-width="8"/>
      <path d="M227 237 L227 340" stroke="#c5cfdf" stroke-width="8"/>
      <path d="M250 249 L250 344" stroke="#c5cfdf" stroke-width="8"/>
      <path d="M273 260 L273 346" stroke="#c5cfdf" stroke-width="8"/>
      <path d="M296 270 L296 346" stroke="#c5cfdf" stroke-width="8"/>
      <path d="M319 278 L319 343" stroke="#c5cfdf" stroke-width="8"/>
      <path d="M342 283 L342 338" stroke="#c5cfdf" stroke-width="8"/>
      <path d="M365 285 L365 331" stroke="#c5cfdf" stroke-width="8"/>
      <path d="M388 284 L388 321" stroke="#c5cfdf" stroke-width="8"/>
      <path d="M411 278 L411 309" stroke="#c5cfdf" stroke-width="8"/>
      <path d="M434 270 L434 296" stroke="#c5cfdf" stroke-width="8"/>
      <path d="M457 259 L457 285" stroke="#c5cfdf" stroke-width="8"/>
      <path d="M480 249 L480 278" stroke="#c5cfdf" stroke-width="8"/>
      <path d="M503 241 L503 275" stroke="#c5cfdf" stroke-width="8"/>
      <path d="M526 235 L526 277" stroke="#c5cfdf" stroke-width="8"/>
      <path d="M549 234 L549 283" stroke="#c5cfdf" stroke-width="8"/>
      <path d="M572 239 L572 292" stroke="#c5cfdf" stroke-width="8"/>
      <path d="M595 247 L595 303" stroke="#c5cfdf" stroke-width="8"/>
      <path d="M618 257 L618 313" stroke="#c5cfdf" stroke-width="8"/>
      <path d="M641 267 L641 321" stroke="#c5cfdf" stroke-width="8"/>
      <path d="M664 276 L664 326" stroke="#c5cfdf" stroke-width="8"/>
      <path d="M687 281 L687 328" stroke="#c5cfdf" stroke-width="8"/>
      <path d="M710 282 L710 326" stroke="#c5cfdf" stroke-width="8"/>
      <path d="M733 278 L733 319" stroke="#c5cfdf" stroke-width="8"/>
      <path d="M756 270 L756 308" stroke="#c5cfdf" stroke-width="8"/>
      <path d="M779 260 L779 294" stroke="#c5cfdf" stroke-width="8"/>
      <path d="M802 248 L802 281" stroke="#c5cfdf" stroke-width="8"/>
      <path d="M825 238 L825 272" stroke="#c5cfdf" stroke-width="8"/>
      <path d="M848 233 L848 269" stroke="#c5cfdf" stroke-width="8"/>
      <path d="M871 234 L871 273" stroke="#c5cfdf" stroke-width="8"/>
      <path d="M894 241 L894 282" stroke="#c5cfdf" stroke-width="8"/>
      <path d="M917 252 L917 294" stroke="#c5cfdf" stroke-width="8"/>
      <path d="M940 264 L940 305" stroke="#c5cfdf" stroke-width="8"/>
      <path d="M963 273 L963 312" stroke="#c5cfdf" stroke-width="8"/>
      <path d="M986 278 L986 315" stroke="#c5cfdf" stroke-width="8"/>
      <path d="M1009 277 L1009 311" stroke="#c5cfdf" stroke-width="8"/>
      <path d="M1032 272 L1032 302" stroke="#c5cfdf" stroke-width="8"/>
      <path d="M1055 262 L1055 290" stroke="#c5cfdf" stroke-width="8"/>
      <path d="M1078 251 L1078 276" stroke="#c5cfdf" stroke-width="8"/>
    </g>
    <path d="M144 216 C166 184 189 146 219 103 C254 53 325 54 360 105 C389 149 399 209 445 213 C496 218 516 161 548 129 C583 93 638 95 662 140 C689 191 690 229 731 233 C772 236 782 185 811 160 C842 132 889 140 908 177 C929 218 943 233 990 224 C1035 215 1069 211 1096 238" fill="none" stroke="#ffffff" stroke-width="11" stroke-linejoin="round" stroke-linecap="round"/>
    <path d="M144 216 C166 184 189 146 219 103 C254 53 325 54 360 105 C389 149 399 209 445 213 C496 218 516 161 548 129 C583 93 638 95 662 140 C689 191 690 229 731 233 C772 236 782 185 811 160 C842 132 889 140 908 177 C929 218 943 233 990 224 C1035 215 1069 211 1096 238" fill="none" stroke="#ff4fb3" stroke-width="2" opacity="0.2"/>
  </g>
  <text x="729" y="444" text-anchor="middle" font-family="Inter, Arial, Helvetica, sans-serif" font-size="120" font-weight="800" letter-spacing="-2" fill="#050505">TorchDCM</text>
</svg>
